<mxfile host="app.diagrams.net" modified="2024-03-19T08:17:39.679Z" agent="Mozilla/5.0 (Macintosh; Intel Mac OS X 10_15_7) AppleWebKit/537.36 (KHTML, like Gecko) Chrome/122.0.0.0 Safari/537.36" etag="4GThhIr0MgDM77BBSqUX" version="24.0.6" type="github">
  <diagram name="第 1 页" id="G8CixaVr8PnL_Jj4iAKf">
    <mxGraphModel dx="1220" dy="713" grid="1" gridSize="10" guides="1" tooltips="1" connect="1" arrows="1" fold="1" page="1" pageScale="1" pageWidth="827" pageHeight="1169" math="0" shadow="0">
      <root>
        <mxCell id="0" />
        <mxCell id="1" parent="0" />
        <mxCell id="1oh_xGEBcgF_zcGnsKzx-3" value="&lt;b&gt;Dialogues&lt;/b&gt;" style="shape=callout;whiteSpace=wrap;html=1;perimeter=calloutPerimeter;size=40;position=0.17;position2=0.17;base=20;" vertex="1" parent="1">
          <mxGeometry x="90" y="330" width="120" height="150" as="geometry" />
        </mxCell>
      </root>
    </mxGraphModel>
  </diagram>
</mxfile>
